<svg id="visual" viewBox="0 0 900 600" width="900" height="600" xmlns="http://www.w3.org/2000/svg" xmlns:xlink="http://www.w3.org/1999/xlink" version="1.1"><rect x="0" y="0" width="900" height="600" fill="#001220"></rect><path d="M270 0L263.5 14.3C257 28.7 244 57.3 256.5 85.8C269 114.3 307 142.7 328.7 171.2C350.3 199.7 355.7 228.3 344.5 257C333.3 285.7 305.7 314.3 294.7 343C283.7 371.7 289.3 400.3 299.3 428.8C309.3 457.3 323.7 485.7 321 514.2C318.3 542.7 298.7 571.3 288.8 585.7L279 600L0 600L0 585.7C0 571.3 0 542.7 0 514.2C0 485.7 0 457.3 0 428.8C0 400.3 0 371.7 0 343C0 314.3 0 285.7 0 257C0 228.3 0 199.7 0 171.2C0 142.7 0 114.3 0 85.8C0 57.3 0 28.7 0 14.3L0 0Z" fill="#f56692"></path><path d="M275 0L262.7 14.3C250.3 28.7 225.7 57.3 218.2 85.8C210.7 114.3 220.3 142.7 218.3 171.2C216.3 199.7 202.7 228.3 209.8 257C217 285.7 245 314.3 243.8 343C242.7 371.7 212.3 400.3 207.8 428.8C203.3 457.3 224.7 485.7 230.3 514.2C236 542.7 226 571.3 221 585.7L216 600L0 600L0 585.7C0 571.3 0 542.7 0 514.2C0 485.7 0 457.3 0 428.8C0 400.3 0 371.7 0 343C0 314.3 0 285.7 0 257C0 228.3 0 199.7 0 171.2C0 142.7 0 114.3 0 85.8C0 57.3 0 28.7 0 14.3L0 0Z" fill="#f4578d"></path><path d="M225 0L213.5 14.3C202 28.7 179 57.3 166.3 85.8C153.7 114.3 151.3 142.7 162.3 171.2C173.3 199.7 197.7 228.3 211 257C224.3 285.7 226.7 314.3 226.8 343C227 371.7 225 400.3 211.3 428.8C197.7 457.3 172.3 485.7 158.3 514.2C144.3 542.7 141.7 571.3 140.3 585.7L139 600L0 600L0 585.7C0 571.3 0 542.7 0 514.2C0 485.7 0 457.3 0 428.8C0 400.3 0 371.7 0 343C0 314.3 0 285.7 0 257C0 228.3 0 199.7 0 171.2C0 142.7 0 114.3 0 85.8C0 57.3 0 28.7 0 14.3L0 0Z" fill="#f24589"></path><path d="M138 0L135.2 14.3C132.3 28.7 126.7 57.3 129.3 85.8C132 114.3 143 142.7 150.3 171.2C157.7 199.7 161.3 228.3 157 257C152.7 285.7 140.3 314.3 138 343C135.7 371.7 143.3 400.3 141.7 428.8C140 457.3 129 485.7 121.7 514.2C114.3 542.7 110.7 571.3 108.8 585.7L107 600L0 600L0 585.7C0 571.3 0 542.7 0 514.2C0 485.7 0 457.3 0 428.8C0 400.3 0 371.7 0 343C0 314.3 0 285.7 0 257C0 228.3 0 199.7 0 171.2C0 142.7 0 114.3 0 85.8C0 57.3 0 28.7 0 14.3L0 0Z" fill="#f02f86"></path><path d="M49 0L48.7 14.3C48.3 28.7 47.7 57.3 47.8 85.8C48 114.3 49 142.7 47.8 171.2C46.7 199.7 43.3 228.3 44.7 257C46 285.7 52 314.3 63.3 343C74.7 371.7 91.3 400.3 90.3 428.8C89.3 457.3 70.7 485.7 59.8 514.2C49 542.7 46 571.3 44.5 585.7L43 600L0 600L0 585.7C0 571.3 0 542.7 0 514.2C0 485.7 0 457.3 0 428.8C0 400.3 0 371.7 0 343C0 314.3 0 285.7 0 257C0 228.3 0 199.7 0 171.2C0 142.7 0 114.3 0 85.8C0 57.3 0 28.7 0 14.3L0 0Z" fill="#ed0583"></path></svg>